<svg viewBox="0 0 120 60" version="1.1" xmlns="http://www.w3.org/2000/svg">
    <path d="M75.2278327,0 L89.1936426,0 C94.3865578,-9.53923058e-16 98.5962474,4.20968958 98.5962474,9.40260484 C98.5962474,12.0949876 97.4420723,14.6582027 95.4261399,16.4428431 L57.7296186,49.8143653 C52.4998884,54.4440778 45.7567443,57 38.7721673,57 L24.8063574,57 C19.6134422,57 15.4037526,52.7903104 15.4037526,47.5973952 C15.4037526,44.9050124 16.5579277,42.3417973 18.5738601,40.5571569 L56.2703814,7.18563471 C61.5001116,2.55592218 68.2432557,-1.29278087e-14 75.2278327,-1.42108547e-14 Z"
    />
    <path d="M84.3555755,36.2727273 L89.4340518,36.2727273 C91.3223847,36.2727273 92.8531809,37.8035235 92.8531809,39.6918563 C92.8531809,40.6709046 92.4334808,41.6029828 91.7004145,42.2519429 L77.9925886,54.3870419 C76.0908685,56.0705738 73.6388161,57 71.0989699,57 L66.0204936,57 C64.1321608,57 62.6013646,55.4692038 62.6013646,53.580871 C62.6013646,52.6018227 63.0210646,51.6697445 63.754131,51.0207843 L77.4619569,38.8856854 C79.3636769,37.2021535 81.8157293,36.2727273 84.3555755,36.2727273 Z"
    />
</svg>
